<?xml version="1.0" encoding="utf-8"?>
<!-- Generator: Adobe Illustrator 15.1.0, SVG Export Plug-In . SVG Version: 6.00 Build 0)  -->
<!DOCTYPE svg PUBLIC "-//W3C//DTD SVG 1.1//EN" "http://www.w3.org/Graphics/SVG/1.1/DTD/svg11.dtd">
<svg version="1.1" id="图层_1" xmlns="http://www.w3.org/2000/svg" xmlns:xlink="http://www.w3.org/1999/xlink" x="0px" y="0px"
	 width="440px" height="263.5px" viewBox="0 0 440 263.5" enable-background="new 0 0 440 263.5" xml:space="preserve">
<path fill="#8A8A8A" d="M98.623,34.948c-9.415,0-17.074-7.659-17.074-17.072c0-9.415,7.659-17.074,17.074-17.074
	s17.071,7.659,17.071,17.074C115.695,27.289,108.038,34.948,98.623,34.948z M98.623,1.802c-8.862,0-16.074,7.21-16.074,16.074
	c0,8.862,7.21,16.072,16.074,16.072c8.861,0,16.071-7.21,16.071-16.072C114.695,9.012,107.485,1.802,98.623,1.802z"/>
<path fill="#040000" d="M36.334,33.246c-4.777,0-8.666-3.887-8.666-8.666s3.889-8.666,8.666-8.666S45,19.802,45,24.58
	S41.112,33.246,36.334,33.246z M36.334,16.914c-4.228,0-7.666,3.439-7.666,7.666s3.438,7.666,7.666,7.666S44,28.807,44,24.58
	S40.561,16.914,36.334,16.914z"/>
<g>
	
		<rect x="183.667" y="104.025" transform="matrix(-0.7071 -0.7071 0.7071 -0.7071 246.9404 311.4194)" fill="#040000" width="8.593" height="1.089"/>
	<path fill="#040000" d="M180.501,103.944c-3.83,0-6.944-3.115-6.944-6.943c0-3.829,3.114-6.944,6.944-6.944
		c3.829,0,6.942,3.115,6.942,6.944S184.329,103.944,180.501,103.944z M180.501,91.145c-3.229,0-5.855,2.625-5.855,5.854
		s2.628,5.855,5.855,5.855c3.229,0,5.854-2.627,5.854-5.855S183.728,91.145,180.501,91.145z"/>
</g>
<g>
	<polygon fill="#040000" points="212.828,101.154 219,107.23 218.219,108 212.047,101.923 	"/>
	<path fill="#040000" d="M208.054,103.888c-3.891,0-7.055-3.115-7.055-6.943c0-3.829,3.164-6.944,7.055-6.944
		c3.889,0,7.052,3.115,7.052,6.944C215.105,100.774,211.941,103.888,208.054,103.888z M208.054,91.089
		c-3.279,0-5.948,2.625-5.948,5.854s2.669,5.855,5.948,5.855c3.277,0,5.945-2.627,5.945-5.855
		C214,93.714,211.331,91.089,208.054,91.089z"/>
</g>
<g>
	
		<rect x="8.986" y="12.451" transform="matrix(-0.7071 -0.7071 0.7071 -0.7071 12.6004 31.0728)" fill="#040000" width="7.499" height="0.952"/>
	<path fill="#040000" d="M6.31,12.328c-3.343,0-6.061-2.719-6.061-6.06c0-3.342,2.718-6.06,6.061-6.06
		c3.342,0,6.061,2.718,6.061,6.06C12.37,9.609,9.651,12.328,6.31,12.328z M6.31,1.158c-2.816,0-5.108,2.292-5.108,5.109
		s2.292,5.109,5.108,5.109s5.108-2.292,5.108-5.109S9.127,1.158,6.31,1.158z"/>
</g>
<path fill="#FFFFFF" d="M91.441,137.166c-5.33,0-9.666-4.336-9.666-9.665s4.336-9.667,9.666-9.667s9.666,4.338,9.666,9.667
	S96.772,137.166,91.441,137.166z M91.441,119.834c-4.228,0-7.666,3.439-7.666,7.667s3.438,7.665,7.666,7.665
	s7.666-3.438,7.666-7.665S95.669,119.834,91.441,119.834z"/>
<rect x="40.788" y="33.569" transform="matrix(-0.7071 -0.7071 0.7071 -0.7071 53.8602 90.4473)" fill="#040000" width="9.749" height="1"/>
<rect x="-2.555" y="27.675" transform="matrix(-0.7071 -0.7071 0.7071 -0.7071 1.3616 57.0859)" fill="#040000" width="30.117" height="1.172"/>
<rect x="11.914" y="12.579" transform="matrix(-0.7069 -0.7073 0.7073 -0.7069 1.3494 57.0773)" fill="#040000" width="1.173" height="31.359"/>
<rect x="16.608" y="0.854" fill="#231815" width="14.167" height="1"/>
<rect x="16.608" y="6.021" fill="#231815" width="14.167" height="1"/>
<rect x="16.608" y="11" fill="#231815" width="14.167" height="1"/>
<g>
	
		<rect x="219.068" y="16.676" transform="matrix(-0.7071 -0.7071 0.7071 -0.7071 370.332 188.0368)" fill="#040000" width="10.088" height="1.28"/>
	<path fill="#040000" d="M215.469,16.511c-4.496,0-8.152-3.658-8.152-8.151c0-4.495,3.656-8.152,8.152-8.152
		c4.496,0,8.152,3.657,8.152,8.152C223.621,12.853,219.963,16.511,215.469,16.511z M215.469,1.486c-3.789,0-6.871,3.083-6.871,6.872
		c0,3.79,3.083,6.872,6.871,6.872s6.873-3.083,6.873-6.872C222.342,4.569,219.258,1.486,215.469,1.486z"/>
</g>
<rect x="229.321" y="1.077" fill="#231815" width="19.057" height="1.345"/>
<rect x="229.321" y="8.027" fill="#231815" width="19.057" height="1.345"/>
<rect x="229.321" y="14.725" fill="#231815" width="19.057" height="1.345"/>
<polygon fill="#040000" points="38.275,6.354 32.588,0.708 33.295,0 38.629,5.334 "/>
<polygon fill="#040000" points="38.275,6.354 37.921,5.334 43.201,0.055 43.908,0.762 "/>
<polygon fill="#040000" points="46.014,13.978 45.307,13.271 57.931,0.521 59.04,0.953 "/>
<rect x="58.186" y="0.599" fill="#040000" width="1" height="8.422"/>
<polygon fill="#040000" points="57.931,1.521 50.441,1.521 50.441,0.521 59.186,0.599 "/>
<polygon fill="#FFFFFF" points="59.491,13.978 58.784,13.271 71.408,0.521 72.516,0.953 "/>
<polygon fill="#FFFFFF" points="72.663,9.021 71.663,9.021 71.408,0.521 72.516,0.354 "/>
<rect x="63.918" y="0.521" fill="#FFFFFF" width="7.49" height="1"/>
<rect x="50.441" y="26.458" fill="#040000" width="20.333" height="1"/>
<g>
	
		<rect x="59.821" y="22.249" transform="matrix(-0.7071 -0.7071 0.7071 -0.7071 97.3003 85.8012)" fill="#040000" width="13.199" height="1"/>
	<polygon fill="#040000" points="62.566,36.187 61.859,35.48 70.027,27.063 71.441,27.063 	"/>
</g>
<rect x="78.547" y="43.813" fill="#040000" width="23.608" height="1.793"/>
<polygon fill="#040000" points="79.182,45.345 77.295,44.709 83.739,38.25 85.009,39.517 "/>
<polygon fill="#040000" points="83.814,51.247 77.295,44.709 79.182,44.077 85.084,49.978 "/>
<rect x="103.775" y="39.187" fill="#FFFFFF" width="12.333" height="12.333"/>
<rect x="103.811" y="45.289" transform="matrix(-0.7071 -0.7071 0.7071 -0.7071 155.3497 155.9251)" fill="#CA3631" width="12.315" height="1"/>
<rect x="109.466" y="39.641" transform="matrix(-0.7074 -0.7069 0.7069 -0.7074 155.377 155.926)" fill="#CA3631" width="1" height="12.316"/>
<g>
	
		<rect x="66.049" y="125.084" transform="matrix(-0.7071 -0.7071 0.7071 -0.7071 31.7375 264.1566)" fill="#CA3631" width="9.063" height="0.841"/>
	
		<rect x="70.143" y="120.96" transform="matrix(-0.7074 -0.7068 0.7068 -0.7074 31.7806 264.1422)" fill="#CA3631" width="0.842" height="9.065"/>
</g>
<path fill="#CA3631" d="M77.104,132H64.028v-13h13.077L77.104,132L77.104,132z M65.028,131h11.077v-11H65.028V131z"/>
<polygon fill="#070001" points="37.755,58.375 24.421,45.041 25.129,44.334 38.733,57.979 "/>
<polygon fill="#070001" points="25.296,71.542 24.588,70.834 37.755,57.668 38.733,57.979 "/>
<polygon fill="#070001" points="9.712,58.125 8.546,57.854 22.088,44.334 22.795,45.041 "/>
<polygon fill="#070001" points="22.254,71.375 8.546,57.854 9.712,57.418 22.962,70.668 "/>
<circle fill="#070001" cx="81.941" cy="81.437" r="7.417"/>
<rect x="63.292" y="108" fill="#CA3631" width="11.417" height="1"/>
<g>
	<rect x="68.396" y="94.021" fill="#CA3631" width="1" height="13"/>
	<polygon fill="#CA3631" points="68.896,107.667 68.542,106.667 72.854,102.355 73.562,103.062 	"/>
	<polygon fill="#CA3631" points="68.896,107.667 64.438,103.271 65.146,102.564 69.25,106.667 	"/>
</g>
<rect x="54.292" y="88" fill="#070001" width="11.417" height="1"/>
<rect x="59.441" y="73.937" fill="#070001" width="1" height="13"/>
<polygon fill="#070001" points="59.942,87.635 59.588,86.583 63.9,82.271 64.608,82.978 "/>
<polygon fill="#070001" points="59.942,87.635 55.484,83.187 56.191,82.48 60.295,86.583 "/>
<rect x="1.275" y="102.198" fill="#070001" width="8.583" height="1"/>
<rect x="5.066" y="98.365" fill="#070001" width="1" height="8.667"/>
<g>
	<polygon fill="#070001" points="134.442,90.364 133.045,88.927 148.568,73.324 149.982,74.738 	"/>
	
		<rect x="131.48" y="94.927" transform="matrix(-0.7071 -0.7071 0.7071 -0.7071 173.5637 263.75)" fill="#070001" width="19.858" height="2"/>
</g>
<g>
	<polygon fill="#070001" points="168.213,88.613 154.234,74.633 155.648,73.219 170.336,87.885 	"/>
	<polygon fill="#070001" points="154.482,103.759 153.068,102.345 168.213,87.199 170.336,87.885 	"/>
</g>
<polygon fill="#070001" points="127.024,47.064 125.9,46.896 139.359,26.738 140.191,27.292 "/>
<polygon fill="#070001" points="139.37,65.247 125.9,46.896 127.012,46.493 140.18,64.661 "/>
<polygon fill="#070001" points="146.032,66.034 145.2,65.478 158.367,45.707 159.4,45.958 "/>
<polygon fill="#070001" points="158.377,46.277 145.211,28.111 146.021,27.524 159.4,45.958 "/>
<polygon fill="#F7F7F7" points="101.92,112.031 101.92,63.531 126.295,87.906 "/>
<polygon fill="#F7F7F7" points="189.961,27.27 189.961,75.77 165.586,51.395 "/>
<rect x="90.441" y="122.449" fill="#FFFFFF" width="2" height="6.125"/>
<rect x="90.441" y="129.741" fill="#FFFFFF" width="2" height="1.916"/>
<g>
	<path fill="#323333" d="M59.038,132H45.962v-13h13.076V132z M46.962,131h11.076v-11H46.962V131z"/>
	<rect x="48.304" y="125.009" fill="#323333" width="8.394" height="1"/>
	<rect x="52.031" y="120.979" fill="#323333" width="0.938" height="9.063"/>
</g>
<rect x="35.552" y="53.147" transform="matrix(-0.7071 -0.7071 0.7071 -0.7071 46.0467 127.3679)" fill="#FFFFFF" width="27.7" height="2"/>
<rect x="48.4" y="40.297" transform="matrix(-0.7074 -0.7069 0.7069 -0.7074 46.0671 127.3667)" fill="#FFFFFF" width="1.999" height="27.7"/>
<polygon fill="#FFFFFF" points="7.437,53.538 -1.394,44.708 -0.687,44 8.546,53.187 "/>
<polygon fill="#FFFFFF" points="-0.532,62.213 -1.239,61.506 7.437,52.831 8.546,53.187 "/>
<polygon fill="#FFFFFF" points="87.292,67.377 82.421,62.213 83.129,61.506 87.952,66.604 "/>
<rect x="91.043" y="55.909" transform="matrix(-0.7071 -0.7071 0.7071 -0.7071 112.1334 171.2958)" fill="#FFFFFF" width="1" height="13.031"/>
<rect x="64.254" y="57.523" fill="#040000" width="14.354" height="9.501"/>
<polygon fill="#FFFFFF" points="69.053,67.047 64.255,62.056 64.952,61.374 69.754,66.36 "/>
<polygon fill="#FFFFFF" points="69.053,67.047 68.357,66.364 77.431,57.459 78.128,58.143 "/>
<rect x="65.407" y="47.488" transform="matrix(-0.7071 -0.7071 0.7071 -0.7071 85.7009 131.475)" fill="#FFFFFF" width="9.346" height="1.001"/>
<rect x="69.569" y="43.324" transform="matrix(-0.7064 -0.7078 0.7078 -0.7064 85.5903 131.4977)" fill="#FFFFFF" width="1.001" height="9.346"/>
<rect x="85.852" y="17.375" fill="#8A8A8A" width="25.541" height="1"/>
<rect x="98.122" y="5.228" fill="#8A8A8A" width="1" height="25.294"/>
<path d="M147.209,8.057l0.328-2.545h-2.521V3.887c0-0.737,0.205-1.239,1.262-1.239l1.348-0.001V0.371
	c-0.231-0.031-1.031-0.101-1.963-0.101c-1.942,0-3.272,1.187-3.272,3.365v1.877h-2.198v2.545h2.198v6.531h2.628V8.057H147.209z"/>
<path fill="#FFFFFF" d="M132.624,8.057l0.328-2.545h-2.521V3.887c0-0.737,0.205-1.239,1.262-1.239l1.348-0.001V0.371
	c-0.231-0.031-1.032-0.101-1.963-0.101c-1.942,0-3.272,1.187-3.272,3.365v1.877h-2.198v2.545h2.198v6.531h2.628V8.057H132.624z"/>
<path fill="#FFFFFF" d="M26.142,106.16l0.333-2.581H23.92v-1.648c0-0.747,0.208-1.257,1.279-1.257l1.365-0.001v-2.308
	c-0.235-0.032-1.046-0.102-1.99-0.102c-1.971,0-3.319,1.203-3.319,3.412v1.903h-2.229v2.581h2.229v6.623h2.665v-6.623L26.142,106.16
	L26.142,106.16z"/>
<path d="M111.225,149.048l0.34-2.642h-2.615v-1.688c0-0.764,0.213-1.285,1.311-1.285l1.397-0.002v-2.361
	c-0.242-0.025-1.071-0.104-2.039-0.104c-2.018,0-3.396,1.23-3.396,3.493v1.948h-2.282v2.641h2.282v6.78h2.729v-6.78L111.225,149.048
	L111.225,149.048z"/>
<g>
	<path fill="#FFFFFF" d="M175.772,13.573c0,1.137-1.236,2.06-2.762,2.06h-13.894c-1.522,0-2.761-0.922-2.761-2.06V2.413
		c0-1.138,1.235-2.06,2.761-2.06h13.896c1.521,0,2.761,0.922,2.761,2.06L175.772,13.573L175.772,13.573z"/>
	<polygon fill="#070001" points="164.402,11.37 164.402,4.617 169.84,7.994 	"/>
</g>
<path fill="#070001" d="M199.399,13.49c0,1.137-1.262,2.06-2.813,2.06h-14.162c-1.555,0-2.813-0.922-2.813-2.06V2.33
	c0-1.138,1.262-2.06,2.813-2.06h14.162c1.556,0,2.813,0.922,2.813,2.06V13.49z M193.352,7.911l-5.544-3.377v6.752L193.352,7.911z"/>
<path fill="#070001" d="M277.484,153.75c0,1.074-1.313,1.943-2.918,1.943H259.88c-1.609,0-2.916-0.869-2.916-1.943v-10.523
	c0-1.07,1.309-1.938,2.916-1.938h14.688c1.61,0,2.918,0.869,2.918,1.938L277.484,153.75L277.484,153.75z M271.214,148.378
	l-5.747-3.233v6.465L271.214,148.378z"/>
<path fill="#FFFFFF" d="M55.483,110.313c0,0.948-1.208,1.718-2.697,1.718H39.219c-1.489,0-2.698-0.771-2.698-1.718V101
	c0-0.95,1.208-1.72,2.698-1.72h13.566c1.488,0,2.697,0.77,2.697,1.72V110.313L55.483,110.313z M49.69,105.658l-5.313-2.818v5.635
	L49.69,105.658z"/>
<line fill="none" stroke="#000000" stroke-miterlimit="10" x1="22.868" y1="119" x2="37.028" y2="133.16"/>
<line fill="none" stroke="#000000" stroke-miterlimit="10" x1="37.028" y1="119" x2="22.868" y2="133.16"/>
<rect x="-0.097" y="117.834" fill="#040000" width="16" height="16"/>
<g>
	<line fill="none" stroke="#FFFFFF" stroke-width="2" stroke-miterlimit="10" x1="3.882" y1="121.979" x2="11.924" y2="130.021"/>
	<line fill="none" stroke="#FFFFFF" stroke-width="2" stroke-miterlimit="10" x1="11.924" y1="121.979" x2="3.882" y2="130.021"/>
</g>
<g id="XMLID_13_">
	<path id="XMLID_17_" fill="#231815" d="M216.104,141.284h-6.112c-2.484,0-4.507,2.021-4.507,4.506v6.112
		c0,2.486,2.021,4.507,4.507,4.507h6.112c2.484,0,4.505-2.021,4.505-4.507v-6.112C220.609,143.305,218.588,141.284,216.104,141.284z
		 M219.088,151.902c0,1.646-1.336,2.979-2.984,2.979h-6.113c-1.647,0-2.983-1.336-2.983-2.979v-6.112
		c0-1.647,1.336-2.983,2.983-2.983h6.113c1.647,0,2.984,1.336,2.984,2.983V151.902L219.088,151.902z"/>
	<path id="XMLID_81_" fill="#231815" d="M213.047,144.936c-2.156,0-3.911,1.754-3.911,3.912c0,2.156,1.755,3.91,3.911,3.91
		c2.157,0,3.912-1.754,3.912-3.91C216.959,146.689,215.204,144.936,213.047,144.936z M213.047,151.236
		c-1.319,0-2.392-1.069-2.392-2.396c0-1.314,1.071-2.391,2.392-2.391c1.321,0,2.391,1.064,2.391,2.391
		C215.437,150.167,214.367,151.236,213.047,151.236z"/>
	<circle id="XMLID_83_" fill="#231815" cx="216.967" cy="144.964" r="0.937"/>
</g>
<path d="M168.897,142.713c-0.674,0.301-1.398,0.502-2.159,0.594c0.776-0.467,1.373-1.203,1.653-2.08
	c-0.727,0.437-1.53,0.744-2.388,0.912c-0.687-0.729-1.664-1.188-2.744-1.188c-2.076,0-3.761,1.684-3.761,3.759
	c0,0.296,0.033,0.583,0.098,0.856c-3.125-0.155-5.896-1.651-7.75-3.936c-0.323,0.563-0.509,1.202-0.509,1.896
	c0,1.305,0.664,2.455,1.672,3.131c-0.615-0.021-1.195-0.188-1.703-0.473v0.047c0,1.822,1.297,3.345,3.017,3.688
	c-0.315,0.085-0.649,0.133-0.99,0.133c-0.242,0-0.479-0.021-0.708-0.063c0.479,1.486,1.867,2.574,3.513,2.604
	c-1.286,1.008-2.907,1.609-4.67,1.609c-0.304,0-0.603-0.02-0.896-0.053c1.663,1.063,3.641,1.688,5.766,1.688
	c6.915,0,10.697-5.729,10.697-10.695c0-0.162-0.004-0.326-0.011-0.482C167.756,144.13,168.392,143.469,168.897,142.713z"/>
<g>
	<path d="M37.371,165.873c0.128,0.08,0.271,0.193,0.432,0.348c0.153,0.158,0.303,0.354,0.449,0.586
		c0.142,0.219,0.267,0.479,0.375,0.773c0.089,0.297,0.135,0.645,0.135,1.042c-0.013,0.728-0.174,1.31-0.483,1.746
		c-0.15,0.213-0.313,0.407-0.48,0.587c-0.188,0.178-0.388,0.359-0.601,0.546c-0.121,0.126-0.232,0.269-0.337,0.427
		c-0.121,0.166-0.181,0.356-0.181,0.575c0,0.213,0.063,0.388,0.188,0.526c0.104,0.133,0.208,0.248,0.308,0.348l0.691,0.564
		c0.428,0.353,0.805,0.738,1.128,1.162c0.305,0.43,0.463,0.992,0.478,1.687c0,0.985-0.437,1.858-1.308,2.621
		c-0.901,0.788-2.206,1.194-3.908,1.222c-1.426-0.014-2.488-0.316-3.191-0.91c-0.709-0.557-1.063-1.22-1.063-1.992
		c0-0.377,0.116-0.797,0.348-1.258c0.224-0.463,0.628-0.869,1.216-1.22c0.658-0.376,1.352-0.628,2.076-0.754
		c0.718-0.104,1.314-0.164,1.79-0.177c-0.146-0.194-0.277-0.399-0.394-0.619c-0.135-0.213-0.201-0.471-0.201-0.768
		c0-0.188,0.024-0.33,0.076-0.449c0.044-0.127,0.087-0.242,0.125-0.354c-0.23,0.026-0.449,0.041-0.653,0.041
		c-1.083-0.015-1.908-0.354-2.478-1.021c-0.595-0.623-0.893-1.348-0.893-2.174c0-1,0.421-1.906,1.264-2.727
		c0.578-0.479,1.18-0.779,1.803-0.936c0.617-0.127,1.195-0.188,1.735-0.188h4.067l-1.256,0.73L37.371,165.873L37.371,165.873z
		 M38.156,177.586c0-0.518-0.168-0.966-0.505-1.352c-0.355-0.362-0.913-0.813-1.672-1.34c-0.13-0.021-0.282-0.021-0.457-0.021
		c-0.104-0.016-0.37,0-0.797,0.039c-0.421,0.063-0.854,0.152-1.293,0.287c-0.104,0.041-0.249,0.101-0.438,0.18
		c-0.188,0.087-0.378,0.209-0.574,0.367c-0.188,0.165-0.346,0.369-0.477,0.615c-0.148,0.26-0.223,0.568-0.223,0.935
		c0,0.718,0.322,1.306,0.971,1.769c0.616,0.467,1.458,0.701,2.525,0.717c0.96-0.016,1.691-0.229,2.196-0.637
		C37.91,178.74,38.156,178.223,38.156,177.586z M35.32,171.621c0.536-0.02,0.982-0.213,1.34-0.577
		c0.172-0.259,0.282-0.522,0.332-0.797c0.029-0.271,0.045-0.499,0.045-0.685c0-0.811-0.206-1.612-0.616-2.436
		c-0.192-0.391-0.445-0.709-0.761-0.947c-0.32-0.23-0.688-0.354-1.105-0.367c-0.552,0.014-1.01,0.229-1.375,0.666
		c-0.31,0.451-0.456,0.955-0.441,1.513c0,0.735,0.216,1.501,0.646,2.298c0.208,0.371,0.478,0.686,0.809,0.943
		C34.519,171.492,34.895,171.621,35.32,171.621z"/>
	<polygon points="45.395,167.361 43.26,167.361 43.26,165.227 42.225,165.227 42.225,167.361 40.09,167.361 40.09,168.396 
		42.225,168.396 42.225,170.529 43.26,170.529 43.26,168.396 45.395,168.396 	"/>
</g>
<g>
	<g>
		<path fill="#231815" d="M66.055,171.484c0.464,0,0.825-0.146,1.091-0.342c0.264-0.203,0.396-0.479,0.396-0.834v-2.141
			c0-0.313-0.135-0.57-0.402-0.771c-0.27-0.197-0.615-0.299-1.037-0.299c-0.462,0-0.832,0.092-1.105,0.28s-0.412,0.442-0.412,0.767
			v2.146c0,0.354,0.135,0.631,0.4,0.839C65.252,171.341,65.61,171.484,66.055,171.484z M65.571,168.254
			c0-0.083,0.043-0.146,0.132-0.199c0.088-0.051,0.2-0.074,0.34-0.074c0.151,0,0.274,0.024,0.367,0.074
			c0.094,0.053,0.139,0.116,0.139,0.199v2.027c0,0.102-0.045,0.182-0.137,0.238c-0.092,0.056-0.215,0.086-0.369,0.086
			c-0.15,0-0.269-0.027-0.35-0.086c-0.082-0.06-0.122-0.14-0.122-0.238V168.254L65.571,168.254z M69.119,171.482
			c0.164,0,0.329-0.092,0.5-0.185c0.174-0.092,0.34-0.224,0.499-0.396v0.476h0.863v-4.286h-0.863v3.254
			c-0.081,0.092-0.17,0.17-0.267,0.229c-0.099,0.06-0.18,0.092-0.242,0.092c-0.081,0-0.141-0.022-0.175-0.067
			c-0.037-0.047-0.059-0.119-0.059-0.22v-3.286h-0.862v3.58c0,0.256,0.052,0.446,0.151,0.572
			C68.769,171.375,68.919,171.482,69.119,171.482z M71.635,172.143H61.184c-1.663,0-3.009,1.244-3.009,2.778v2.354
			c0,1.537,1.347,2.781,3.009,2.781h10.45c1.662,0,3.009-1.246,3.009-2.781v-2.354C74.643,173.387,73.295,172.143,71.635,172.143z
			 M62.738,174.527h-0.924v3.684H60.92v-3.684h-0.924v-0.629h2.742V174.527z M65.497,178.262h-0.964v-0.382
			c-0.18,0.142-0.363,0.25-0.559,0.323c-0.189,0.072-0.377,0.111-0.56,0.111c-0.225,0-0.391-0.059-0.503-0.158
			c-0.111-0.104-0.169-0.258-0.169-0.465v-2.907h0.964v2.668c0,0.083,0.021,0.142,0.06,0.176c0.042,0.04,0.108,0.058,0.198,0.058
			c0.069,0,0.161-0.021,0.27-0.072c0.109-0.049,0.208-0.107,0.3-0.188v-2.641h0.963V178.262L65.497,178.262L65.497,178.262z
			 M69.144,177.6c0,0.229-0.075,0.401-0.226,0.524c-0.146,0.123-0.364,0.183-0.646,0.183c-0.188,0-0.354-0.021-0.498-0.07
			c-0.146-0.045-0.282-0.114-0.406-0.219v0.246h-0.963v-4.365h0.963v1.406c0.13-0.096,0.268-0.172,0.408-0.224
			c0.146-0.052,0.292-0.076,0.438-0.076c0.302,0,0.531,0.07,0.688,0.205c0.16,0.138,0.239,0.339,0.239,0.603L69.144,177.6
			L69.144,177.6z M72.81,176.618h-1.774v0.629c0,0.175,0.028,0.296,0.091,0.364c0.063,0.066,0.167,0.103,0.314,0.103
			c0.155,0,0.262-0.03,0.324-0.088c0.062-0.06,0.094-0.183,0.094-0.38v-0.152h0.954v0.172c0,0.342-0.113,0.604-0.351,0.771
			c-0.231,0.173-0.581,0.259-1.043,0.259c-0.416,0-0.744-0.092-0.981-0.274c-0.237-0.182-0.358-0.436-0.358-0.758v-1.498
			c0-0.287,0.132-0.521,0.396-0.707c0.264-0.183,0.601-0.271,1.018-0.271c0.424,0,0.751,0.087,0.979,0.254
			c0.227,0.169,0.341,0.411,0.341,0.729L72.81,176.618L72.81,176.618z M62.221,171.495h1.09v-2.562l1.271-3.609h-1.109l-0.678,2.468
			h-0.068l-0.709-2.468h-1.102l1.303,3.726L62.221,171.495L62.221,171.495z M67.766,175.518l-0.202,0.031l-0.195,0.098v2.004
			c0.076,0.058,0.151,0.098,0.227,0.115l0.229,0.035c0.117,0,0.202-0.023,0.258-0.07c0.056-0.045,0.083-0.119,0.083-0.219v-1.664
			c0-0.105-0.032-0.188-0.101-0.248C67.994,175.546,67.895,175.518,67.766,175.518z"/>
		<path fill="#231815" d="M71.492,175.37c-0.149,0-0.255,0.028-0.319,0.092c-0.063,0.062-0.095,0.16-0.095,0.302v0.336h0.82v-0.336
			c0-0.142-0.033-0.238-0.1-0.302C71.738,175.398,71.633,175.37,71.492,175.37z"/>
	</g>
</g>
<g>
	<path d="M312.209,155.438v-9.623h-3.198v9.623H312.209L312.209,155.438z M310.609,144.5c1.115,0,1.811-0.738,1.811-1.662
		c-0.021-0.943-0.693-1.663-1.788-1.663c-1.096,0-1.812,0.72-1.812,1.663c0,0.924,0.695,1.662,1.77,1.662H310.609L310.609,144.5z"/>
	<path d="M313.979,155.438h3.199v-5.375c0-0.287,0.021-0.566,0.104-0.772c0.231-0.574,0.758-1.17,1.642-1.17
		c1.157,0,1.621,0.883,1.621,2.176v5.146h3.197v-5.521c0-2.956-1.577-4.331-3.682-4.331c-1.729,0-2.483,0.967-2.904,1.622h0.021
		v-1.396h-3.198C314.021,146.716,313.979,155.438,313.979,155.438L313.979,155.438z"/>
</g>
<path fill="#040000" d="M65.438,140.521c-0.611,0.27-0.753,0.899-0.307,1.354c0.218,0.217,0.422,0.255,1.313,0.255
	c1.25,0,2.093,0.332,2.729,1.071c0.778,0.881,0.867,1.148,0.867,2.756c0,1.43,0,1.454,0.332,1.646
	c0.767,0.434,1.275-0.104,1.454-1.531c0.229-1.862-0.88-4.03-2.552-5.025C68.181,140.408,66.306,140.152,65.438,140.521
	L65.438,140.521z M59.162,142.896c-1.43,0.51-2.807,1.492-4.286,3.072c-3.508,3.727-3.277,7.271,0.587,9.153
	c4.019,1.964,9.428,1.313,12.374-1.492c2.207-2.093,1.938-4.721-0.573-5.606c-0.447-0.152-0.588-0.271-0.522-0.408
	c0.229-0.561,0.306-1.211,0.178-1.594c-0.396-1.213-1.837-1.492-3.979-0.771l-0.854,0.294l0.077-0.854
	c0.089-1.008-0.128-1.559-0.728-1.857C60.936,142.576,59.979,142.602,59.162,142.896L59.162,142.896z M62.708,147.832
	c1.9,0.523,3.063,1.671,3.063,3.036c0,1.519-1.353,2.883-3.546,3.61c-1.174,0.383-3.354,0.459-4.427,0.164
	c-2.027-0.572-3.176-1.695-3.176-3.145c0-0.791,0.344-1.479,1.098-2.188c0.701-0.66,1.236-0.979,2.271-1.32
	C59.545,147.475,61.216,147.411,62.708,147.832z M58.69,149.068c-1.289,0.601-1.979,1.52-1.979,2.666
	c0,1.047,0.459,1.762,1.468,2.297c0.777,0.422,2.207,0.383,3.073-0.063c1.109-0.588,1.837-1.672,1.837-2.73
	c-0.013-0.862-0.777-1.895-1.685-2.27C60.68,148.661,59.456,148.712,58.69,149.068L58.69,149.068z M59.622,151.469
	c0.089,0.088,0.152,0.305,0.152,0.496c0,0.639-1.07,1.161-1.505,0.729c-0.243-0.235-0.18-0.842,0.103-1.123
	C58.652,151.289,59.379,151.227,59.622,151.469L59.622,151.469z M65.655,143.139c-0.587,0.586-0.19,1.287,0.74,1.287
	c0.805,0,1.161,0.408,1.161,1.327c0,0.574,0.051,0.739,0.28,0.894c0.688,0.484,1.25-0.051,1.25-1.188
	c0-1.391-0.995-2.438-2.411-2.538C66.038,142.87,65.885,142.908,65.655,143.139L65.655,143.139z"/>
<g>
	<path fill="#040000" d="M1.532,140.436c-0.578,0.213-0.978,0.668-1.038,1.201c-0.073,0.641-0.045,0.701,2.154,4.451
		c1.117,1.92,2.038,3.52,2.038,3.559c0,0.035-0.354,0.854-0.786,1.819c-0.438,0.966-0.831,1.909-0.882,2.095
		c-0.229,0.897,0.174,1.604,1.072,1.862c0.69,0.208,1.162,0.022,1.611-0.628c0.219-0.314,5.534-12.081,5.643-12.479
		c0.101-0.387,0.101-0.584-0.007-0.938c-0.105-0.358-0.448-0.685-0.881-0.849c-0.981-0.364-1.565-0.135-2.004,0.798
		c-0.118,0.253-0.65,1.433-1.186,2.628c-0.539,1.201-0.988,2.178-1.005,2.178c-0.021-0.006-0.68-1.123-1.466-2.486
		c-1.14-1.971-1.493-2.543-1.74-2.789C2.604,140.391,2.06,140.238,1.532,140.436z"/>
	<path fill="#040000" d="M12.792,141.508c-0.346,0.129-0.562,0.314-0.701,0.612c-0.134,0.269-0.14,0.339-0.188,2.435
		c-0.021,1.188-0.034,3.239-0.028,4.563l0.018,2.394l0.175,0.348c0.146,0.285,0.229,0.367,0.468,0.488
		c0.251,0.137,0.361,0.15,0.875,0.15c0.489,0,0.625-0.021,0.828-0.129c0.597-0.32,0.66-0.578,0.66-2.688
		c0-0.91,0.012-1.652,0.029-1.652c0.022,0,1.021,0.912,2.224,2.027c1.221,1.133,2.307,2.096,2.458,2.178
		c0.362,0.188,0.963,0.229,1.344,0.088c0.618-0.237,0.869-0.666,0.822-1.411c-0.046-0.767-0.109-0.849-1.908-2.507
		c-0.864-0.799-1.576-1.48-1.576-1.512c-0.006-0.035,0.45-0.482,1.004-1.01c1.77-1.658,1.821-1.722,2.025-2.107
		c0.104-0.211,0.198-0.504,0.217-0.678c0.063-0.619-0.292-1.23-0.895-1.521c-0.273-0.139-0.374-0.152-0.684-0.133
		c-0.199,0.021-0.483,0.092-0.625,0.158c-0.188,0.092-0.871,0.746-2.348,2.237l-2.084,2.113l-0.005-1.589
		c0-0.898-0.028-1.721-0.063-1.883c-0.082-0.381-0.339-0.729-0.647-0.887C13.872,141.438,13.112,141.391,12.792,141.508
		L12.792,141.508z"/>
</g>
<g>
	<path fill="#231815" d="M10.52,171.201c0.461,0,0.821-0.15,1.085-0.367c0.264-0.215,0.395-0.514,0.395-0.891v-2.283
		c0-0.336-0.134-0.613-0.4-0.827c-0.27-0.214-0.612-0.319-1.032-0.319c-0.46,0-0.828,0.104-1.101,0.303
		c-0.272,0.203-0.408,0.479-0.408,0.816v2.293c0,0.375,0.133,0.676,0.397,0.896C9.722,171.047,10.077,171.201,10.52,171.201z
		 M10.039,167.746c0-0.087,0.043-0.157,0.129-0.213c0.088-0.055,0.201-0.08,0.34-0.08c0.151,0,0.272,0.025,0.365,0.08
		s0.139,0.126,0.139,0.213v2.171c0,0.106-0.045,0.192-0.136,0.252c-0.092,0.062-0.214,0.093-0.367,0.093
		c-0.149,0-0.267-0.029-0.348-0.093c-0.08-0.058-0.121-0.144-0.121-0.252L10.039,167.746L10.039,167.746z M13.568,171.199
		c0.163,0,0.327-0.098,0.498-0.192c0.175-0.098,0.338-0.239,0.497-0.428v0.508h0.859v-4.581h-0.859v3.479
		c-0.08,0.103-0.169,0.185-0.266,0.246c-0.097,0.063-0.177,0.102-0.239,0.102c-0.081,0-0.142-0.023-0.176-0.074
		c-0.036-0.049-0.057-0.127-0.057-0.229v-3.518h-0.856v3.827c0,0.271,0.052,0.479,0.15,0.614
		C13.219,171.083,13.369,171.199,13.568,171.199z M15.747,172.167h-9.75c-1.552,0-2.808,1.248-2.808,2.785v2.358
		c0,1.539,1.256,2.789,2.808,2.789h9.75c1.55,0,2.808-1.25,2.808-2.789v-2.358C18.553,173.415,17.297,172.167,15.747,172.167z
		 M7.007,174.355H6.034v4.166H5.093v-4.166H4.119v-0.711h2.889C7.007,173.646,7.007,174.355,7.007,174.355z M9.911,178.582H8.897
		v-0.436c-0.188,0.16-0.383,0.283-0.587,0.361c-0.202,0.09-0.397,0.131-0.588,0.131c-0.236,0-0.411-0.063-0.531-0.181
		c-0.116-0.114-0.178-0.294-0.178-0.522v-3.291h1.014v3.019c0,0.094,0.021,0.159,0.063,0.2c0.043,0.045,0.114,0.063,0.209,0.063
		c0.073,0,0.171-0.025,0.282-0.08c0.114-0.054,0.22-0.125,0.315-0.213v-2.988h1.015V178.582L9.911,178.582z M13.751,177.832
		c0,0.259-0.079,0.456-0.236,0.592c-0.154,0.141-0.384,0.205-0.681,0.205c-0.196,0-0.372-0.023-0.523-0.076
		c-0.152-0.053-0.298-0.136-0.43-0.248v0.278h-1.013v-4.938h1.013v1.592c0.138-0.104,0.281-0.19,0.431-0.252
		c0.152-0.06,0.309-0.088,0.462-0.088c0.317,0,0.561,0.078,0.728,0.232c0.167,0.155,0.251,0.381,0.251,0.68L13.751,177.832
		L13.751,177.832z M17.612,176.721h-1.869v0.711c0,0.197,0.029,0.338,0.095,0.414c0.066,0.076,0.177,0.113,0.332,0.113
		c0.163,0,0.275-0.033,0.342-0.098c0.063-0.066,0.099-0.209,0.099-0.434v-0.173h1.005v0.19c0,0.389-0.119,0.681-0.369,0.877
		c-0.244,0.189-0.611,0.291-1.099,0.291c-0.438,0-0.783-0.104-1.034-0.313c-0.25-0.203-0.378-0.49-0.378-0.854v-1.696
		c0-0.323,0.14-0.595,0.417-0.801c0.278-0.205,0.632-0.312,1.07-0.312c0.446,0,0.791,0.1,1.03,0.284
		c0.24,0.19,0.358,0.464,0.358,0.823L17.612,176.721L17.612,176.721L17.612,176.721z M6.705,171.212H7.79v-2.737l1.267-3.855H7.952
		l-0.674,2.639H7.209l-0.705-2.639H5.409l1.295,3.979L6.705,171.212L6.705,171.212L6.705,171.212z M12.301,175.475l-0.213,0.037
		l-0.207,0.11v2.271c0.081,0.062,0.161,0.104,0.238,0.129l0.24,0.039c0.125,0,0.215-0.022,0.271-0.078
		c0.06-0.053,0.087-0.135,0.087-0.248v-1.883c0-0.125-0.032-0.218-0.104-0.281C12.54,175.507,12.437,175.475,12.301,175.475z
		 M16.224,175.309c-0.157,0-0.269,0.035-0.337,0.104c-0.067,0.067-0.101,0.181-0.101,0.34v0.38h0.863v-0.38
		c0-0.159-0.034-0.271-0.104-0.34C16.483,175.344,16.372,175.309,16.224,175.309z"/>
</g>
<path fill="#231815" d="M360,141.284c4.179,0,7.563,3.386,7.563,7.563c0,4.176-3.385,7.563-7.563,7.563s-7.563-3.385-7.563-7.563
	C352.438,144.669,355.822,141.284,360,141.284z M360.27,143.771c-3.131,0-4.707,2.172-4.707,3.979c0,1.101,0.431,2.071,1.351,2.438
	c0.147,0.061,0.286,0.002,0.33-0.158l0.136-0.514c0.045-0.158,0.023-0.215-0.1-0.354c-0.264-0.308-0.434-0.695-0.434-1.251
	c0-1.607,1.245-3.059,3.241-3.059c1.771,0,2.741,1.049,2.741,2.441c0,1.84-0.842,3.393-2.09,3.393c-0.688,0-1.205-0.551-1.039-1.229
	c0.197-0.809,0.582-1.68,0.582-2.262c0-0.521-0.289-0.959-0.889-0.959c-0.705,0-1.271,0.705-1.271,1.648
	c0,0.604,0.212,1.01,0.212,1.01l-0.853,3.478c-0.25,1.032-0.033,2.298-0.02,2.424c0.012,0.076,0.11,0.099,0.155,0.037
	c0.063-0.082,0.903-1.085,1.188-2.088c0.079-0.284,0.463-1.753,0.463-1.753c0.229,0.424,0.896,0.796,1.606,0.796
	c2.114,0,3.556-1.87,3.556-4.371C364.438,145.533,362.784,143.771,360.27,143.771z"/>
<path d="M397.152,143.122c0-1.015,0.822-1.838,1.838-1.838h10.566c1.015,0,1.838,0.823,1.838,1.838v10.565
	c0,1.016-0.823,1.838-1.838,1.838H398.99c-1.016,0-1.838-0.822-1.838-1.838V143.122L397.152,143.122z M407.471,152.836l-0.533-1.541
	c-0.203,0.137-0.604,0.2-0.873,0.2c-0.803,0-1.004-0.603-1.004-1.071v-3.35h2.145v-1.608h-2.145v-2.747h-1.543
	c-0.063,0-0.063,0-0.133,0.065c-0.068,0.805-0.472,2.278-2.078,2.882v1.408h1.071v3.484c0,1.205,0.871,2.944,3.218,2.879
	C406.398,153.438,407.271,153.105,407.471,152.836z"/>
<path fill="#231815" d="M404.378,183.51c-0.048,0-0.093-0.003-0.128-0.005c-0.024,0.003-0.056,0.005-0.081,0.005
	c-0.984,0-1.646-0.468-2.229-0.879c-0.416-0.295-0.81-0.572-1.271-0.648c-0.228-0.039-0.45-0.058-0.671-0.058
	c-0.391,0-0.7,0.062-0.928,0.104c-0.139,0.027-0.258,0.051-0.353,0.051c-0.1,0-0.216-0.021-0.266-0.189
	c-0.039-0.133-0.065-0.261-0.095-0.385c-0.066-0.309-0.116-0.496-0.23-0.515c-1.234-0.19-1.97-0.472-2.111-0.813
	c-0.019-0.033-0.023-0.07-0.025-0.105c-0.006-0.104,0.066-0.189,0.166-0.206c0.982-0.161,1.855-0.683,2.597-1.544
	c0.571-0.67,0.854-1.307,0.886-1.379c0.002-0.002,0.004-0.006,0.004-0.008c0.144-0.291,0.172-0.541,0.086-0.744
	c-0.16-0.375-0.688-0.543-1.037-0.651c-0.086-0.026-0.168-0.056-0.232-0.08c-0.311-0.122-0.816-0.38-0.75-0.735
	c0.05-0.262,0.395-0.439,0.67-0.439c0.077,0,0.146,0.014,0.202,0.039c0.313,0.146,0.601,0.223,0.841,0.223
	c0.305,0,0.448-0.113,0.482-0.146c-0.01-0.166-0.02-0.33-0.027-0.496c-0.07-1.127-0.159-2.529,0.198-3.338
	c1.073-2.408,3.354-2.598,4.026-2.598c0.11,0,0.224-0.002,0.334-0.003c0.674,0,2.959,0.188,4.035,2.601
	c0.357,0.808,0.271,2.211,0.198,3.342l-0.004,0.055c-0.011,0.15-0.021,0.299-0.024,0.438c0.032,0.029,0.166,0.138,0.438,0.146
	c0.231-0.009,0.498-0.083,0.791-0.222c0.091-0.041,0.19-0.052,0.261-0.052c0.104,0,0.207,0.021,0.296,0.059l0.005,0.002
	c0.25,0.088,0.411,0.266,0.416,0.45c0.002,0.172-0.125,0.431-0.76,0.68c-0.063,0.024-0.146,0.052-0.232,0.08
	c-0.352,0.108-0.877,0.276-1.035,0.651c-0.088,0.205-0.06,0.455,0.084,0.744c0.002,0.004,0.002,0.006,0.004,0.011
	c0.045,0.104,1.107,2.528,3.482,2.92c0.1,0.017,0.17,0.104,0.166,0.207c-0.006,0.036-0.015,0.073-0.027,0.106
	c-0.146,0.34-0.875,0.619-2.111,0.813c-0.115,0.018-0.165,0.204-0.23,0.514c-0.026,0.127-0.058,0.25-0.094,0.381
	c-0.037,0.123-0.117,0.185-0.246,0.185h-0.021c-0.082,0-0.201-0.015-0.352-0.043c-0.264-0.052-0.557-0.101-0.93-0.101
	c-0.218,0-0.439,0.021-0.668,0.057c-0.462,0.076-0.854,0.355-1.271,0.648C406.021,183.042,405.361,183.51,404.378,183.51"/>
<g>
	<path fill="#231815" d="M355.611,166.962h8.777c1.672,0,3.041,1.369,3.041,3.042v8.777c0,1.672-1.369,3.041-3.041,3.041h-8.777
		c-1.673,0-3.042-1.369-3.042-3.041v-8.777C352.569,168.331,353.938,166.962,355.611,166.962z"/>
	<path fill="#FFFFFF" d="M359.985,169.041c3.236,0,5.86,2.102,5.86,4.691c0,0.906-0.32,1.752-0.875,2.47
		c-0.027,0.038-0.063,0.086-0.108,0.136l-0.004,0.003c-0.188,0.228-0.402,0.438-0.637,0.636c-1.622,1.498-4.288,3.281-4.643,3.008
		c-0.306-0.238,0.506-1.408-0.43-1.604c-0.064-0.008-0.13-0.016-0.195-0.021h-0.001v-0.002c-2.746-0.391-4.831-2.312-4.831-4.621
		C354.123,171.143,356.748,169.041,359.985,169.041L359.985,169.041z"/>
	<path fill="#231815" d="M356.585,175.23h1.183c0.169,0,0.306-0.139,0.306-0.307V174.9c0-0.168-0.137-0.307-0.306-0.307h-0.853
		v-1.938c0-0.17-0.138-0.307-0.306-0.307h-0.024c-0.169,0-0.307,0.137-0.307,0.307v2.268
		C356.279,175.094,356.416,175.23,356.585,175.23z M363.908,173.811v-0.024c0-0.168-0.138-0.306-0.306-0.306h-0.853v-0.483h0.853
		c0.168,0,0.306-0.14,0.306-0.308v-0.024c0-0.167-0.138-0.308-0.306-0.308h-1.184c-0.168,0-0.307,0.141-0.307,0.308v2.269
		c0,0.168,0.139,0.307,0.307,0.307h1.184c0.168,0,0.306-0.139,0.306-0.307v-0.025c0-0.168-0.138-0.305-0.306-0.305h-0.853v-0.484
		h0.853C363.771,174.115,363.908,173.979,363.908,173.811L363.908,173.811z M361.636,175.141L361.636,175.141
		c0.058-0.058,0.089-0.135,0.089-0.213v-2.269c0-0.171-0.139-0.306-0.308-0.306h-0.023c-0.168,0-0.307,0.135-0.307,0.306v1.329
		l-1.104-1.48c-0.052-0.093-0.151-0.154-0.267-0.154h-0.024c-0.167,0-0.306,0.137-0.306,0.308v2.269
		c0,0.166,0.139,0.305,0.306,0.305h0.024c0.17,0,0.307-0.139,0.307-0.305v-1.357l1.114,1.521c0.005,0.01,0.014,0.02,0.021,0.029l0,0
		c0.03,0.041,0.072,0.07,0.119,0.088c0.035,0.018,0.074,0.021,0.116,0.021h0.022c0.051,0,0.102-0.012,0.146-0.035
		C361.593,175.182,361.616,175.161,361.636,175.141L361.636,175.141z M358.625,175.23h0.024c0.168,0,0.306-0.139,0.306-0.307v-2.268
		c0-0.17-0.138-0.307-0.306-0.307h-0.024c-0.169,0-0.307,0.137-0.307,0.307v2.268C358.319,175.094,358.456,175.23,358.625,175.23
		L358.625,175.23z"/>
</g>
<g>
	<path d="M159.372,167.783c-3.123-0.75-6.29,1.191-7.042,4.314l0.637-2.65c0.401-1.666,2.091-2.7,3.757-2.301L159.372,167.783"/>
	<path stroke="#231815" stroke-miterlimit="10" d="M159.372,167.783"/>
	<path d="M161.324,168.252c3.123,0.751,5.063,3.919,4.313,7.041l0.636-2.646c0.4-1.666-0.634-3.356-2.3-3.758L161.324,168.252"/>
	<path d="M158.172,181.378c3.122,0.75,6.29-1.19,7.039-4.313l-0.635,2.649c-0.399,1.665-2.091,2.7-3.756,2.3L158.172,181.378"/>
	<path d="M156.219,180.908c-3.123-0.75-5.063-3.918-4.313-7.04l-0.638,2.647c-0.4,1.666,0.636,3.355,2.302,3.756L156.219,180.908"/>
	<g>
		<path d="M158.772,167.906c-3.688,0-6.674,2.988-6.674,6.675s2.986,6.674,6.674,6.674c3.687,0,6.674-2.987,6.674-6.674
			S162.458,167.906,158.772,167.906z M156.884,169.729c1.044,0,1.889,0.844,1.889,1.889c0,1.042-0.845,1.888-1.889,1.888
			c-1.043,0-1.889-0.846-1.889-1.888C154.995,170.572,155.841,169.729,156.884,169.729z M155.876,178.527
			c-1.043,0-1.888-0.846-1.888-1.889s0.845-1.889,1.888-1.889c1.042,0,1.89,0.846,1.89,1.889S156.918,178.527,155.876,178.527z
			 M157.895,174.646c0-0.457,0.37-0.828,0.829-0.828c0.458,0,0.829,0.371,0.829,0.828c0,0.459-0.371,0.83-0.829,0.83
			C158.265,175.477,157.895,175.105,157.895,174.646z M160.651,179.465c-1.043,0-1.889-0.846-1.889-1.889
			c0-1.041,0.846-1.889,1.889-1.889s1.887,0.848,1.887,1.889C162.537,178.619,161.694,179.465,160.651,179.465z M161.656,174.439
			c-1.042,0-1.888-0.846-1.888-1.887c0-1.043,0.846-1.89,1.888-1.89c1.044,0,1.89,0.846,1.89,1.89
			C163.546,173.596,162.7,174.439,161.656,174.439z"/>
	</g>
</g>
<g>
	<path fill="#040000" d="M221.58,180.982c0,0.654-0.53,1.188-1.186,1.188h-12.807c-0.653,0-1.187-0.533-1.187-1.188v-12.805
		c0-0.654,0.532-1.188,1.187-1.188h12.807c0.654,0,1.186,0.533,1.186,1.188V180.982z"/>
	<path fill="#FFFFFF" d="M213.991,169.127c-3.404,0-6.166,2.178-6.166,4.859c0,1.738,1.153,3.261,2.891,4.121
		c-0.095,0.326-0.607,2.096-0.628,2.233c0,0-0.012,0.104,0.058,0.144c0.065,0.041,0.146,0.009,0.146,0.009
		c0.195-0.024,2.251-1.47,2.606-1.722c0.354,0.053,0.723,0.078,1.095,0.078c3.406,0,6.166-2.179,6.166-4.863
		C220.157,171.305,217.398,169.127,213.991,169.127L213.991,169.127z"/>
	<path fill="#040000" d="M210.582,175.684c-0.194,0-0.354-0.152-0.354-0.338v-2.113h-0.558c-0.19,0-0.349-0.156-0.349-0.349
		s0.157-0.348,0.349-0.348h1.823c0.191,0,0.348,0.153,0.348,0.348c0,0.19-0.155,0.349-0.348,0.349h-0.556v2.113
		C210.939,175.531,210.779,175.684,210.582,175.684z M213.701,175.682c-0.147,0-0.261-0.062-0.296-0.158l-0.176-0.463h-1.085
		l-0.178,0.465c-0.031,0.096-0.146,0.156-0.295,0.156c-0.077,0-0.154-0.019-0.226-0.05c-0.099-0.047-0.193-0.169-0.085-0.506
		l0.851-2.239c0.062-0.171,0.243-0.346,0.476-0.351c0.231,0.004,0.414,0.18,0.474,0.351l0.852,2.239
		c0.107,0.337,0.014,0.46-0.083,0.506C213.858,175.663,213.78,175.682,213.701,175.682L213.701,175.682L213.701,175.682z
		 M213.042,174.434l-0.354-1.011l-0.356,1.011H213.042L213.042,174.434z M214.585,175.633c-0.188,0-0.342-0.146-0.342-0.324v-2.418
		c0-0.195,0.163-0.354,0.364-0.354c0.199,0,0.362,0.158,0.362,0.354v2.092h0.755c0.188,0,0.342,0.146,0.342,0.326
		c0,0.18-0.153,0.324-0.342,0.324H214.585z M216.561,175.682c-0.197,0-0.355-0.16-0.355-0.355v-2.436
		c0-0.195,0.158-0.354,0.355-0.354c0.195,0,0.354,0.158,0.354,0.354v0.766l0.993-0.991c0.051-0.054,0.12-0.081,0.197-0.081
		c0.089,0,0.178,0.04,0.244,0.105c0.063,0.063,0.1,0.144,0.104,0.226c0.004,0.084-0.021,0.161-0.078,0.217l-0.812,0.812l0.875,1.16
		c0.058,0.076,0.082,0.17,0.068,0.264c-0.013,0.094-0.063,0.178-0.14,0.232c-0.061,0.049-0.136,0.073-0.213,0.073
		c-0.112,0-0.217-0.053-0.284-0.142l-0.834-1.105l-0.124,0.123v0.777C216.916,175.521,216.757,175.682,216.561,175.682
		L216.561,175.682z"/>
</g>
<g>
	<path fill="#040000" d="M270.168,171.953l-5.23,3.148c-0.091,0.053-0.128,0.158-0.098,0.254l0.683,2.445
		c0.021,0.066,0.119,0.059,0.127-0.017l0.149-1.687c0.008-0.129,0.068-0.248,0.165-0.33l4.271-3.726
		C270.281,171.999,270.221,171.916,270.168,171.953z"/>
	<path fill="#040000" d="M272.177,166.99h-9.933c-1.445,0-2.622,1.179-2.622,2.625v9.931c0,1.447,1.177,2.624,2.622,2.624h9.933
		c1.445,0,2.622-1.177,2.622-2.624v-9.931C274.8,168.169,273.615,166.99,272.177,166.99z M272.612,170.305l-1.919,8.717
		c-0.066,0.293-0.412,0.412-0.646,0.227l-2.248-1.784c-0.164-0.135-0.411-0.112-0.554,0.054l-1.155,1.334
		c-0.201,0.239-0.592,0.155-0.682-0.137l-1.02-3.141c-0.046-0.127-0.151-0.23-0.277-0.262l-2.016-0.533
		c-0.368-0.098-0.404-0.606-0.054-0.756l10.021-4.174C272.365,169.729,272.68,169.988,272.612,170.305z"/>
</g>
<g>
	<g>
		<path fill="#040000" d="M323.862,180.85c0,0.639-0.521,1.162-1.16,1.162h-12.54c-0.641,0-1.16-0.523-1.16-1.162v-12.537
			c0-0.64,0.521-1.162,1.16-1.162h12.54c0.641,0,1.16,0.522,1.16,1.162V180.85z"/>
		<path fill="#FFFFFF" d="M322.723,176.613c0,1.012-0.983,1.83-2.194,1.83h-8.193c-1.212,0-2.194-0.818-2.194-1.83v-5.063
			c0-1.014,0.982-1.834,2.194-1.834h8.193c1.211,0,2.194,0.82,2.194,1.834V176.613z"/>
		<polygon fill="#FFFFFF" points="317.606,178.039 316.432,180.072 315.257,178.039 		"/>
	</g>
	
		<image overflow="visible" enable-background="new    " width="500" height="250" xlink:href="FD8AC206.png"  transform="matrix(0.0205 0 0 0.0195 311.3015 171.6426)">
	</image>
</g>
</svg>
