<?xml version="1.0" encoding="utf-8"?>
<!-- Generator: Adobe Illustrator 15.1.0, SVG Export Plug-In . SVG Version: 6.00 Build 0)  -->
<!DOCTYPE svg PUBLIC "-//W3C//DTD SVG 1.1//EN" "http://www.w3.org/Graphics/SVG/1.1/DTD/svg11.dtd">
<svg version="1.1" id="图层_1" xmlns="http://www.w3.org/2000/svg" xmlns:xlink="http://www.w3.org/1999/xlink" x="0px" y="0px"
	 width="109px" height="25px" viewBox="0 0 109 25" enable-background="new 0 0 109 25" xml:space="preserve">
<g>
	<polygon fill="#040000" points="45.024,14.546 50.357,14.546 50.357,10.284 52.754,10.284 52.754,20.803 50.357,20.803 
		50.357,16.409 45.024,16.409 45.024,20.803 42.628,20.803 42.628,10.284 45.024,10.284 	"/>
	<path fill="#040000" d="M57.1,16.583c0,1.861,0.588,2.635,2.569,2.635s2.554-0.773,2.554-2.635v-6.299h2.395v6.359
		c0,1.348-0.159,2.271-0.665,2.824c-0.938,1.029-2.302,1.453-4.283,1.453s-3.361-0.424-4.297-1.453
		c-0.524-0.565-0.653-1.492-0.653-2.824v-6.359H57.1V16.583z"/>
	<path fill="#040000" d="M72.443,10.284l4.853,10.519h-2.663l-1.047-2.506h-4.95l-1.014,2.506h-2.536l4.818-10.519H72.443z
		 M69.413,16.424h3.396l-1.729-4.042L69.413,16.424z"/>
	<polygon fill="#040000" points="78.386,10.284 81.019,18.37 83.238,10.284 86.063,10.284 88.614,18.37 91.073,10.284 
		93.532,10.284 90.01,20.803 87.076,20.803 84.649,12.951 82.525,20.803 79.605,20.803 75.813,10.284 	"/>
	<path fill="#040000" d="M96.755,14.561h6.63v1.833h-6.643c0.013,1.89,0.823,2.577,2.709,2.577h3.934v1.832h-4.044
		c-1.379,0-2.442-0.104-3.553-0.923c-1.172-0.863-1.743-2.241-1.743-4.146c0-3.718,1.697-5.45,5.36-5.45h3.979v1.833h-3.934
		C97.724,12.116,96.853,12.905,96.755,14.561"/>
	<rect x="105.496" y="10.284" fill="#040000" width="2.504" height="10.519"/>
</g>
<g>
	<path fill="#E30F24" d="M15.611,19.522c0,0,0.059-0.046,0.027-0.12h0c-3.84-8.392-9.093-14.75-9.093-14.75
		s-2.858,2.711-2.654,5.429C4,12.138,5.547,13.354,5.547,13.354c2.492,2.429,8.526,5.495,9.929,6.189
		C15.497,19.554,15.569,19.576,15.611,19.522"/>
	<path fill="#E30F24" d="M14.678,21.601c-0.025-0.092-0.129-0.092-0.129-0.092v-0.002l-10.046,0.35
		c1.089,1.943,2.924,3.451,4.836,2.989c1.319-0.33,4.308-2.414,5.292-3.118l-0.001-0.004C14.705,21.656,14.678,21.601,14.678,21.601
		"/>
	<path fill="#E30F24" d="M14.83,20.697c0.048-0.079-0.038-0.147-0.038-0.147l0.001-0.004c-4.412-2.975-12.964-7.545-12.964-7.545
		c-0.777,2.408,0.27,4.346,0.27,4.346c1.09,2.305,3.171,3.001,3.171,3.001c0.96,0.396,1.921,0.423,1.921,0.423
		c0.151,0.028,5.975,0.003,7.535-0.004C14.792,20.767,14.83,20.697,14.83,20.697"/>
	<path fill="#E30F24" d="M15.497,0.313c-0.438,0.038-1.618,0.307-1.618,0.307C11.22,1.307,10.59,3.722,10.59,3.722
		c-0.484,1.518,0.014,3.186,0.014,3.186c0.887,3.939,5.257,10.413,6.194,11.771c0.067,0.067,0.121,0.042,0.121,0.042
		c0.101-0.028,0.093-0.125,0.093-0.125h0.002C18.458,4.144,15.497,0.313,15.497,0.313"/>
	<path fill="#E30F24" d="M18.822,18.717c0.098,0.038,0.145-0.054,0.145-0.054h0.001c0.965-1.395,5.307-7.833,6.19-11.755
		c0,0,0.48-1.9,0.017-3.186c0,0-0.657-2.452-3.32-3.101c0,0-0.768-0.194-1.582-0.308c0,0-2.978,3.833-1.53,18.294h0.002
		C18.756,18.7,18.822,18.717,18.822,18.717"/>
	<path fill="#E30F24" d="M21.2,21.517c0,0-0.088,0.012-0.113,0.076c0,0-0.021,0.091,0.039,0.137h-0.001
		c0.961,0.69,3.876,2.729,5.282,3.124c0,0,2.597,0.884,4.853-2.99l-10.059-0.351L21.2,21.517z"/>
	<path fill="#E30F24" d="M33.935,12.98c0,0-8.541,4.582-12.957,7.562h0.001c0,0-0.079,0.054-0.051,0.147
		c0,0,0.042,0.075,0.104,0.075v0.002c1.58,0.002,7.564,0.007,7.715-0.02c0,0,0.774-0.031,1.73-0.399c0,0,2.128-0.677,3.234-3.093
		C33.711,17.255,34.696,15.282,33.935,12.98"/>
	<path fill="#E30F24" d="M20.172,19.522c0,0,0.07,0.052,0.136,0.01v0.002c1.439-0.718,7.428-3.763,9.908-6.18
		c0,0,1.571-1.262,1.655-3.288c0.181-2.813-2.651-5.415-2.651-5.415s-5.24,6.339-9.078,14.711h0.003
		C20.144,19.363,20.099,19.46,20.172,19.522"/>
</g>
</svg>
