<?xml version="1.0" standalone="no"?><!DOCTYPE svg PUBLIC "-//W3C//DTD SVG 1.1//EN" "http://www.w3.org/Graphics/SVG/1.1/DTD/svg11.dtd"><svg class="icon" width="200px" height="200.00px" viewBox="0 0 1024 1024" version="1.1" xmlns="http://www.w3.org/2000/svg"><path fill="#333333" d="M1021.910202 501.55102C1021.910202 223.608163 798.302042 0 520.359183 0 242.416326 0 18.808163 223.608163 18.808163 501.55102 18.808163 779.493875 242.416326 1003.102042 520.359183 1003.102042 798.302042 1003.102042 1021.910202 777.404083 1021.910202 501.55102L1021.910202 501.55102ZM60.604082 501.55102C60.604082 246.595918 265.404082 41.795918 520.359183 41.795918 775.314285 41.795918 980.114285 246.595918 980.114285 501.55102 980.114285 756.506125 775.314285 961.306125 520.359183 961.306125 267.493878 961.306125 60.604082 754.416326 60.604082 501.55102L60.604082 501.55102ZM735.608166 493.191837 403.330612 300.930612C399.15102 296.75102 394.971428 296.75102 390.791837 300.930612 386.612245 300.930612 382.432653 305.110204 382.432653 309.289796L382.432653 693.812243C382.432653 697.991834 386.612245 702.17143 386.612245 702.17143 390.791837 706.351021 394.971428 706.351021 399.15102 702.17143L735.608166 509.910204C739.787757 505.730612 739.787757 505.730612 739.787757 501.55102 743.967347 497.371428 739.787757 493.191837 735.608166 493.191837L735.608166 493.191837 735.608166 493.191837 735.608166 493.191837 735.608166 493.191837Z" /></svg>